<svg xmlns="http://www.w3.org/2000/svg" version="1.1" xmlns:xlink="http://www.w3.org/1999/xlink" xmlns:svgjs="http://svgjs.dev/svgjs" width="1440" height="560" preserveAspectRatio="none" viewBox="0 0 1440 560"><g mask="url(&quot;#SvgjsMask1024&quot;)" fill="none"><rect width="1440" height="560" x="0" y="0" fill="rgba(40, 44, 51, 1)"></rect><path d="M-82.62 354.96L-82.62 354.96" stroke="rgba(39, 38, 38, 1)" stroke-width="1.5"></path><path d="M-82.62 354.96L-103.07 488.64" stroke="rgba(39, 38, 38, 1)" stroke-width="1.5"></path><path d="M-82.62 354.96L-52.48 639.11" stroke="rgba(39, 38, 38, 1)" stroke-width="1.5"></path><path d="M-82.62 354.96L227.33 387.65" stroke="rgba(39, 38, 38, 1)" stroke-width="1.5"></path><path d="M-82.62 354.96L237.59 492.24" stroke="rgba(39, 38, 38, 1)" stroke-width="1.5"></path><path d="M-82.62 354.96L83.33 679.39" stroke="rgba(39, 38, 38, 1)" stroke-width="1.5"></path><path d="M-103.07 488.64L-103.07 488.64" stroke="rgba(39, 38, 38, 1)" stroke-width="1.5"></path><path d="M-103.07 488.64L-52.48 639.11" stroke="rgba(39, 38, 38, 1)" stroke-width="1.5"></path><path d="M-103.07 488.64L83.33 679.39" stroke="rgba(39, 38, 38, 1)" stroke-width="1.5"></path><path d="M-52.48 639.11L-52.48 639.11" stroke="rgba(39, 38, 38, 1)" stroke-width="1.5"></path><path d="M-52.48 639.11L83.33 679.39" stroke="rgba(39, 38, 38, 1)" stroke-width="1.5"></path><path d="M-52.48 639.11L221.99 684.03" stroke="rgba(39, 38, 38, 1)" stroke-width="1.5"></path><path d="M83.33 679.39L83.33 679.39" stroke="rgba(39, 38, 38, 1)" stroke-width="1.5"></path><path d="M83.33 679.39L221.99 684.03" stroke="rgba(39, 38, 38, 1)" stroke-width="1.5"></path><path d="M227.33 387.65L227.33 387.65" stroke="rgba(39, 38, 38, 1)" stroke-width="1.5"></path><path d="M227.33 387.65L237.59 492.24" stroke="rgba(39, 38, 38, 1)" stroke-width="1.5"></path><path d="M227.33 387.65L380.13 385.77" stroke="rgba(39, 38, 38, 1)" stroke-width="1.5"></path><path d="M227.33 387.65L401.36 559.06" stroke="rgba(39, 38, 38, 1)" stroke-width="1.5"></path><path d="M237.59 492.24L237.59 492.24" stroke="rgba(39, 38, 38, 1)" stroke-width="1.5"></path><path d="M237.59 492.24L401.36 559.06" stroke="rgba(39, 38, 38, 1)" stroke-width="1.5"></path><path d="M237.59 492.24L380.13 385.77" stroke="rgba(39, 38, 38, 1)" stroke-width="1.5"></path><path d="M237.59 492.24L221.99 684.03" stroke="rgba(39, 38, 38, 1)" stroke-width="1.5"></path><path d="M237.59 492.24L83.33 679.39" stroke="rgba(39, 38, 38, 1)" stroke-width="1.5"></path><path d="M237.59 492.24L-52.48 639.11" stroke="rgba(39, 38, 38, 1)" stroke-width="1.5"></path><path d="M221.99 684.03L221.99 684.03" stroke="rgba(39, 38, 38, 1)" stroke-width="1.5"></path><path d="M221.99 684.03L401.36 559.06" stroke="rgba(39, 38, 38, 1)" stroke-width="1.5"></path><path d="M221.99 684.03L227.33 387.65" stroke="rgba(39, 38, 38, 1)" stroke-width="1.5"></path><path d="M221.99 684.03L535.08 648.35" stroke="rgba(39, 38, 38, 1)" stroke-width="1.5"></path><path d="M380.13 385.77L380.13 385.77" stroke="rgba(39, 38, 38, 1)" stroke-width="1.5"></path><path d="M380.13 385.77L401.36 559.06" stroke="rgba(39, 38, 38, 1)" stroke-width="1.5"></path><path d="M380.13 385.77L561.75 521.53" stroke="rgba(39, 38, 38, 1)" stroke-width="1.5"></path><path d="M380.13 385.77L644.65 388.37" stroke="rgba(39, 38, 38, 1)" stroke-width="1.5"></path><path d="M401.36 559.06L401.36 559.06" stroke="rgba(39, 38, 38, 1)" stroke-width="1.5"></path><path d="M401.36 559.06L535.08 648.35" stroke="rgba(39, 38, 38, 1)" stroke-width="1.5"></path><path d="M401.36 559.06L561.75 521.53" stroke="rgba(39, 38, 38, 1)" stroke-width="1.5"></path><path d="M561.75 521.53L561.75 521.53" stroke="rgba(39, 38, 38, 1)" stroke-width="1.5"></path><path d="M561.75 521.53L685.1 546.33" stroke="rgba(39, 38, 38, 1)" stroke-width="1.5"></path><path d="M561.75 521.53L535.08 648.35" stroke="rgba(39, 38, 38, 1)" stroke-width="1.5"></path><path d="M561.75 521.53L644.65 388.37" stroke="rgba(39, 38, 38, 1)" stroke-width="1.5"></path><path d="M561.75 521.53L704.84 679.39" stroke="rgba(39, 38, 38, 1)" stroke-width="1.5"></path><path d="M535.08 648.35L535.08 648.35" stroke="rgba(39, 38, 38, 1)" stroke-width="1.5"></path><path d="M535.08 648.35L704.84 679.39" stroke="rgba(39, 38, 38, 1)" stroke-width="1.5"></path><path d="M644.65 388.37L644.65 388.37" stroke="rgba(39, 38, 38, 1)" stroke-width="1.5"></path><path d="M644.65 388.37L685.1 546.33" stroke="rgba(39, 38, 38, 1)" stroke-width="1.5"></path><path d="M685.1 546.33L685.1 546.33" stroke="rgba(39, 38, 38, 1)" stroke-width="1.5"></path><path d="M685.1 546.33L704.84 679.39" stroke="rgba(39, 38, 38, 1)" stroke-width="1.5"></path><path d="M685.1 546.33L831.71 524.08" stroke="rgba(39, 38, 38, 1)" stroke-width="1.5"></path><path d="M704.84 679.39L704.84 679.39" stroke="rgba(39, 38, 38, 1)" stroke-width="1.5"></path><path d="M704.84 679.39L811.7 710.59" stroke="rgba(39, 38, 38, 1)" stroke-width="1.5"></path><path d="M814.91 215.26L814.91 215.26" stroke="rgba(39, 38, 38, 1)" stroke-width="1.5"></path><path d="M814.91 215.26L821.38 384.56" stroke="rgba(39, 38, 38, 1)" stroke-width="1.5"></path><path d="M814.91 215.26L982.96 49.82" stroke="rgba(39, 38, 38, 1)" stroke-width="1.5"></path><path d="M814.91 215.26L644.65 388.37" stroke="rgba(39, 38, 38, 1)" stroke-width="1.5"></path><path d="M821.38 384.56L821.38 384.56" stroke="rgba(39, 38, 38, 1)" stroke-width="1.5"></path><path d="M821.38 384.56L831.71 524.08" stroke="rgba(39, 38, 38, 1)" stroke-width="1.5"></path><path d="M821.38 384.56L985.45 402.71" stroke="rgba(39, 38, 38, 1)" stroke-width="1.5"></path><path d="M821.38 384.56L644.65 388.37" stroke="rgba(39, 38, 38, 1)" stroke-width="1.5"></path><path d="M821.38 384.56L685.1 546.33" stroke="rgba(39, 38, 38, 1)" stroke-width="1.5"></path><path d="M831.71 524.08L831.71 524.08" stroke="rgba(39, 38, 38, 1)" stroke-width="1.5"></path><path d="M831.71 524.08L945.94 659.27" stroke="rgba(39, 38, 38, 1)" stroke-width="1.5"></path><path d="M831.71 524.08L811.7 710.59" stroke="rgba(39, 38, 38, 1)" stroke-width="1.5"></path><path d="M831.71 524.08L985.45 402.71" stroke="rgba(39, 38, 38, 1)" stroke-width="1.5"></path><path d="M831.71 524.08L704.84 679.39" stroke="rgba(39, 38, 38, 1)" stroke-width="1.5"></path><path d="M811.7 710.59L811.7 710.59" stroke="rgba(39, 38, 38, 1)" stroke-width="1.5"></path><path d="M811.7 710.59L945.94 659.27" stroke="rgba(39, 38, 38, 1)" stroke-width="1.5"></path><path d="M970.69 -41.84L970.69 -41.84" stroke="rgba(39, 38, 38, 1)" stroke-width="1.5"></path><path d="M970.69 -41.84L982.96 49.82" stroke="rgba(39, 38, 38, 1)" stroke-width="1.5"></path><path d="M982.96 49.82L982.96 49.82" stroke="rgba(39, 38, 38, 1)" stroke-width="1.5"></path><path d="M982.96 49.82L1123.37 -44.02" stroke="rgba(39, 38, 38, 1)" stroke-width="1.5"></path><path d="M982.96 49.82L1147.85 249.42" stroke="rgba(39, 38, 38, 1)" stroke-width="1.5"></path><path d="M985.45 402.71L985.45 402.71" stroke="rgba(39, 38, 38, 1)" stroke-width="1.5"></path><path d="M985.45 402.71L1153.87 398.42" stroke="rgba(39, 38, 38, 1)" stroke-width="1.5"></path><path d="M945.94 659.27L945.94 659.27" stroke="rgba(39, 38, 38, 1)" stroke-width="1.5"></path><path d="M945.94 659.27L1123.15 676.89" stroke="rgba(39, 38, 38, 1)" stroke-width="1.5"></path><path d="M945.94 659.27L1100 528.38" stroke="rgba(39, 38, 38, 1)" stroke-width="1.5"></path><path d="M945.94 659.27L704.84 679.39" stroke="rgba(39, 38, 38, 1)" stroke-width="1.5"></path><path d="M945.94 659.27L985.45 402.71" stroke="rgba(39, 38, 38, 1)" stroke-width="1.5"></path><path d="M1123.37 -44.02L1123.37 -44.02" stroke="rgba(39, 38, 38, 1)" stroke-width="1.5"></path><path d="M1123.37 -44.02L970.69 -41.84" stroke="rgba(39, 38, 38, 1)" stroke-width="1.5"></path><path d="M1147.85 249.42L1147.85 249.42" stroke="rgba(39, 38, 38, 1)" stroke-width="1.5"></path><path d="M1147.85 249.42L1238.34 240.49" stroke="rgba(39, 38, 38, 1)" stroke-width="1.5"></path><path d="M1147.85 249.42L1153.87 398.42" stroke="rgba(39, 38, 38, 1)" stroke-width="1.5"></path><path d="M1147.85 249.42L1252.92 377.48" stroke="rgba(39, 38, 38, 1)" stroke-width="1.5"></path><path d="M1147.85 249.42L1282.68 80.52" stroke="rgba(39, 38, 38, 1)" stroke-width="1.5"></path><path d="M1147.85 249.42L985.45 402.71" stroke="rgba(39, 38, 38, 1)" stroke-width="1.5"></path><path d="M1153.87 398.42L1153.87 398.42" stroke="rgba(39, 38, 38, 1)" stroke-width="1.5"></path><path d="M1153.87 398.42L1252.92 377.48" stroke="rgba(39, 38, 38, 1)" stroke-width="1.5"></path><path d="M1100 528.38L1100 528.38" stroke="rgba(39, 38, 38, 1)" stroke-width="1.5"></path><path d="M1100 528.38L1153.87 398.42" stroke="rgba(39, 38, 38, 1)" stroke-width="1.5"></path><path d="M1100 528.38L1123.15 676.89" stroke="rgba(39, 38, 38, 1)" stroke-width="1.5"></path><path d="M1100 528.38L1266.67 519.33" stroke="rgba(39, 38, 38, 1)" stroke-width="1.5"></path><path d="M1100 528.38L985.45 402.71" stroke="rgba(39, 38, 38, 1)" stroke-width="1.5"></path><path d="M1100 528.38L1241.65 660.37" stroke="rgba(39, 38, 38, 1)" stroke-width="1.5"></path><path d="M1123.15 676.89L1123.15 676.89" stroke="rgba(39, 38, 38, 1)" stroke-width="1.5"></path><path d="M1123.15 676.89L1241.65 660.37" stroke="rgba(39, 38, 38, 1)" stroke-width="1.5"></path><path d="M1305.04 -70.42L1305.04 -70.42" stroke="rgba(39, 38, 38, 1)" stroke-width="1.5"></path><path d="M1305.04 -70.42L1401.71 -102.58" stroke="rgba(39, 38, 38, 1)" stroke-width="1.5"></path><path d="M1305.04 -70.42L1282.68 80.52" stroke="rgba(39, 38, 38, 1)" stroke-width="1.5"></path><path d="M1305.04 -70.42L1123.37 -44.02" stroke="rgba(39, 38, 38, 1)" stroke-width="1.5"></path><path d="M1282.68 80.52L1282.68 80.52" stroke="rgba(39, 38, 38, 1)" stroke-width="1.5"></path><path d="M1282.68 80.52L1394.09 107.1" stroke="rgba(39, 38, 38, 1)" stroke-width="1.5"></path><path d="M1282.68 80.52L1238.34 240.49" stroke="rgba(39, 38, 38, 1)" stroke-width="1.5"></path><path d="M1282.68 80.52L1401.98 227.93" stroke="rgba(39, 38, 38, 1)" stroke-width="1.5"></path><path d="M1282.68 80.52L1123.37 -44.02" stroke="rgba(39, 38, 38, 1)" stroke-width="1.5"></path><path d="M1238.34 240.49L1238.34 240.49" stroke="rgba(39, 38, 38, 1)" stroke-width="1.5"></path><path d="M1238.34 240.49L1252.92 377.48" stroke="rgba(39, 38, 38, 1)" stroke-width="1.5"></path><path d="M1238.34 240.49L1401.98 227.93" stroke="rgba(39, 38, 38, 1)" stroke-width="1.5"></path><path d="M1238.34 240.49L1153.87 398.42" stroke="rgba(39, 38, 38, 1)" stroke-width="1.5"></path><path d="M1252.92 377.48L1252.92 377.48" stroke="rgba(39, 38, 38, 1)" stroke-width="1.5"></path><path d="M1252.92 377.48L1266.67 519.33" stroke="rgba(39, 38, 38, 1)" stroke-width="1.5"></path><path d="M1252.92 377.48L1462.05 351.68" stroke="rgba(39, 38, 38, 1)" stroke-width="1.5"></path><path d="M1252.92 377.48L1401.98 227.93" stroke="rgba(39, 38, 38, 1)" stroke-width="1.5"></path><path d="M1266.67 519.33L1266.67 519.33" stroke="rgba(39, 38, 38, 1)" stroke-width="1.5"></path><path d="M1266.67 519.33L1241.65 660.37" stroke="rgba(39, 38, 38, 1)" stroke-width="1.5"></path><path d="M1266.67 519.33L1153.87 398.42" stroke="rgba(39, 38, 38, 1)" stroke-width="1.5"></path><path d="M1266.67 519.33L1448.86 509.86" stroke="rgba(39, 38, 38, 1)" stroke-width="1.5"></path><path d="M1266.67 519.33L1390.41 686.7" stroke="rgba(39, 38, 38, 1)" stroke-width="1.5"></path><path d="M1241.65 660.37L1241.65 660.37" stroke="rgba(39, 38, 38, 1)" stroke-width="1.5"></path><path d="M1241.65 660.37L1390.41 686.7" stroke="rgba(39, 38, 38, 1)" stroke-width="1.5"></path><path d="M1401.71 -102.58L1401.71 -102.58" stroke="rgba(39, 38, 38, 1)" stroke-width="1.5"></path><path d="M1401.71 -102.58L1586.12 -92.14" stroke="rgba(39, 38, 38, 1)" stroke-width="1.5"></path><path d="M1401.71 -102.58L1541.14 40.46" stroke="rgba(39, 38, 38, 1)" stroke-width="1.5"></path><path d="M1394.09 107.1L1394.09 107.1" stroke="rgba(39, 38, 38, 1)" stroke-width="1.5"></path><path d="M1394.09 107.1L1401.98 227.93" stroke="rgba(39, 38, 38, 1)" stroke-width="1.5"></path><path d="M1394.09 107.1L1541.14 40.46" stroke="rgba(39, 38, 38, 1)" stroke-width="1.5"></path><path d="M1394.09 107.1L1571.26 190.46" stroke="rgba(39, 38, 38, 1)" stroke-width="1.5"></path><path d="M1394.09 107.1L1305.04 -70.42" stroke="rgba(39, 38, 38, 1)" stroke-width="1.5"></path><path d="M1401.98 227.93L1401.98 227.93" stroke="rgba(39, 38, 38, 1)" stroke-width="1.5"></path><path d="M1401.98 227.93L1462.05 351.68" stroke="rgba(39, 38, 38, 1)" stroke-width="1.5"></path><path d="M1401.98 227.93L1571.26 190.46" stroke="rgba(39, 38, 38, 1)" stroke-width="1.5"></path><path d="M1401.98 227.93L1552.22 346.02" stroke="rgba(39, 38, 38, 1)" stroke-width="1.5"></path><path d="M1462.05 351.68L1462.05 351.68" stroke="rgba(39, 38, 38, 1)" stroke-width="1.5"></path><path d="M1462.05 351.68L1552.22 346.02" stroke="rgba(39, 38, 38, 1)" stroke-width="1.5"></path><path d="M1462.05 351.68L1448.86 509.86" stroke="rgba(39, 38, 38, 1)" stroke-width="1.5"></path><path d="M1462.05 351.68L1565.23 508.71" stroke="rgba(39, 38, 38, 1)" stroke-width="1.5"></path><path d="M1448.86 509.86L1448.86 509.86" stroke="rgba(39, 38, 38, 1)" stroke-width="1.5"></path><path d="M1448.86 509.86L1565.23 508.71" stroke="rgba(39, 38, 38, 1)" stroke-width="1.5"></path><path d="M1448.86 509.86L1390.41 686.7" stroke="rgba(39, 38, 38, 1)" stroke-width="1.5"></path><path d="M1390.41 686.7L1390.41 686.7" stroke="rgba(39, 38, 38, 1)" stroke-width="1.5"></path><path d="M1586.12 -92.14L1586.12 -92.14" stroke="rgba(39, 38, 38, 1)" stroke-width="1.5"></path><path d="M1586.12 -92.14L1541.14 40.46" stroke="rgba(39, 38, 38, 1)" stroke-width="1.5"></path><path d="M1586.12 -92.14L1394.09 107.1" stroke="rgba(39, 38, 38, 1)" stroke-width="1.5"></path><path d="M1541.14 40.46L1541.14 40.46" stroke="rgba(39, 38, 38, 1)" stroke-width="1.5"></path><path d="M1541.14 40.46L1571.26 190.46" stroke="rgba(39, 38, 38, 1)" stroke-width="1.5"></path><path d="M1541.14 40.46L1401.98 227.93" stroke="rgba(39, 38, 38, 1)" stroke-width="1.5"></path><path d="M1571.26 190.46L1571.26 190.46" stroke="rgba(39, 38, 38, 1)" stroke-width="1.5"></path><path d="M1571.26 190.46L1552.22 346.02" stroke="rgba(39, 38, 38, 1)" stroke-width="1.5"></path><path d="M1552.22 346.02L1552.22 346.02" stroke="rgba(39, 38, 38, 1)" stroke-width="1.5"></path><path d="M1552.22 346.02L1565.23 508.71" stroke="rgba(39, 38, 38, 1)" stroke-width="1.5"></path><path d="M1565.23 508.71L1565.23 508.71" stroke="rgba(39, 38, 38, 1)" stroke-width="1.5"></path><path d="M1565.23 508.71L1578.02 664" stroke="rgba(39, 38, 38, 1)" stroke-width="1.5"></path><path d="M1578.02 664L1578.02 664" stroke="rgba(39, 38, 38, 1)" stroke-width="1.5"></path><path d="M1578.02 664L1390.41 686.7" stroke="rgba(39, 38, 38, 1)" stroke-width="1.5"></path><path d="M1578.02 664L1448.86 509.86" stroke="rgba(39, 38, 38, 1)" stroke-width="1.5"></path><path d="M1578.02 664L1552.22 346.02" stroke="rgba(39, 38, 38, 1)" stroke-width="1.5"></path><path d="M1578.02 664L1462.05 351.68" stroke="rgba(39, 38, 38, 1)" stroke-width="1.5"></path><circle r="5" cx="-82.62" cy="354.96" fill="rgba(39, 38, 38, 1)"></circle><circle r="5" cx="-103.07" cy="488.64" fill="rgba(39, 38, 38, 1)"></circle><circle r="5" cx="-52.48" cy="639.11" fill="rgba(39, 38, 38, 1)"></circle><circle r="5" cx="83.33" cy="679.39" fill="rgba(39, 38, 38, 1)"></circle><circle r="5" cx="227.33" cy="387.65" fill="rgba(39, 38, 38, 1)"></circle><circle r="5" cx="237.59" cy="492.24" fill="rgba(39, 38, 38, 1)"></circle><circle r="5" cx="221.99" cy="684.03" fill="rgba(39, 38, 38, 1)"></circle><circle r="5" cx="380.13" cy="385.77" fill="rgba(39, 38, 38, 1)"></circle><circle r="5" cx="401.36" cy="559.06" fill="rgba(39, 38, 38, 1)"></circle><circle r="5" cx="561.75" cy="521.53" fill="rgba(39, 38, 38, 1)"></circle><circle r="5" cx="535.08" cy="648.35" fill="rgba(39, 38, 38, 1)"></circle><circle r="5" cx="644.65" cy="388.37" fill="rgba(39, 38, 38, 1)"></circle><circle r="5" cx="685.1" cy="546.33" fill="rgba(39, 38, 38, 1)"></circle><circle r="5" cx="704.84" cy="679.39" fill="rgba(39, 38, 38, 1)"></circle><circle r="5" cx="814.91" cy="215.26" fill="rgba(39, 38, 38, 1)"></circle><circle r="5" cx="821.38" cy="384.56" fill="rgba(39, 38, 38, 1)"></circle><circle r="5" cx="831.71" cy="524.08" fill="rgba(39, 38, 38, 1)"></circle><circle r="5" cx="811.7" cy="710.59" fill="rgba(39, 38, 38, 1)"></circle><circle r="5" cx="970.69" cy="-41.84" fill="rgba(39, 38, 38, 1)"></circle><circle r="5" cx="982.96" cy="49.82" fill="rgba(39, 38, 38, 1)"></circle><circle r="5" cx="985.45" cy="402.71" fill="rgba(39, 38, 38, 1)"></circle><circle r="5" cx="945.94" cy="659.27" fill="rgba(39, 38, 38, 1)"></circle><circle r="5" cx="1123.37" cy="-44.02" fill="rgba(39, 38, 38, 1)"></circle><circle r="5" cx="1147.85" cy="249.42" fill="rgba(39, 38, 38, 1)"></circle><circle r="5" cx="1153.87" cy="398.42" fill="rgba(39, 38, 38, 1)"></circle><circle r="5" cx="1100" cy="528.38" fill="rgba(39, 38, 38, 1)"></circle><circle r="5" cx="1123.15" cy="676.89" fill="rgba(39, 38, 38, 1)"></circle><circle r="5" cx="1305.04" cy="-70.42" fill="rgba(39, 38, 38, 1)"></circle><circle r="5" cx="1282.68" cy="80.52" fill="rgba(39, 38, 38, 1)"></circle><circle r="5" cx="1238.34" cy="240.49" fill="rgba(39, 38, 38, 1)"></circle><circle r="5" cx="1252.92" cy="377.48" fill="rgba(39, 38, 38, 1)"></circle><circle r="5" cx="1266.67" cy="519.33" fill="rgba(39, 38, 38, 1)"></circle><circle r="5" cx="1241.65" cy="660.37" fill="rgba(39, 38, 38, 1)"></circle><circle r="5" cx="1401.71" cy="-102.58" fill="rgba(39, 38, 38, 1)"></circle><circle r="5" cx="1394.09" cy="107.1" fill="rgba(39, 38, 38, 1)"></circle><circle r="5" cx="1401.98" cy="227.93" fill="rgba(39, 38, 38, 1)"></circle><circle r="5" cx="1462.05" cy="351.68" fill="rgba(39, 38, 38, 1)"></circle><circle r="5" cx="1448.86" cy="509.86" fill="rgba(39, 38, 38, 1)"></circle><circle r="5" cx="1390.41" cy="686.7" fill="rgba(39, 38, 38, 1)"></circle><circle r="5" cx="1586.12" cy="-92.14" fill="rgba(39, 38, 38, 1)"></circle><circle r="5" cx="1541.14" cy="40.46" fill="rgba(39, 38, 38, 1)"></circle><circle r="5" cx="1571.26" cy="190.46" fill="rgba(39, 38, 38, 1)"></circle><circle r="5" cx="1552.22" cy="346.02" fill="rgba(39, 38, 38, 1)"></circle><circle r="5" cx="1565.23" cy="508.71" fill="rgba(39, 38, 38, 1)"></circle><circle r="5" cx="1578.02" cy="664" fill="rgba(39, 38, 38, 1)"></circle><path d="M-76.86 508.08L-76.86 508.08" stroke="hsl(286.9, 59.8%, 86.9%)" stroke-width="1.5"></path><path d="M-76.86 508.08L65.03 540.84" stroke="hsl(286.9, 59.8%, 86.9%)" stroke-width="1.5"></path><path d="M-76.86 508.08L-100.63 652.57" stroke="hsl(286.9, 59.8%, 86.9%)" stroke-width="1.5"></path><path d="M-76.86 508.08L70.72 664.97" stroke="hsl(286.9, 59.8%, 86.9%)" stroke-width="1.5"></path><path d="M-76.86 508.08L260.56 683.05" stroke="hsl(286.9, 59.8%, 86.9%)" stroke-width="1.5"></path><path d="M-76.86 508.08L406.74 549.86" stroke="hsl(286.9, 59.8%, 86.9%)" stroke-width="1.5"></path><path d="M552.99 494.67L552.99 494.67" stroke="hsl(286.9, 59.8%, 86.9%)" stroke-width="1.5"></path><path d="M552.99 494.67L679.38 519.29" stroke="hsl(286.9, 59.8%, 86.9%)" stroke-width="1.5"></path><path d="M552.99 494.67L406.74 549.86" stroke="hsl(286.9, 59.8%, 86.9%)" stroke-width="1.5"></path><path d="M552.99 494.67L556.96 674.06" stroke="hsl(286.9, 59.8%, 86.9%)" stroke-width="1.5"></path><path d="M959.74 340.26L959.74 340.26" stroke="hsl(286.9, 59.8%, 86.9%)" stroke-width="1.5"></path><path d="M959.74 340.26L837.73 356.97" stroke="hsl(286.9, 59.8%, 86.9%)" stroke-width="1.5"></path><path d="M959.74 340.26L938.74 500.31" stroke="hsl(286.9, 59.8%, 86.9%)" stroke-width="1.5"></path><path d="M959.74 340.26L1111.63 401.56" stroke="hsl(286.9, 59.8%, 86.9%)" stroke-width="1.5"></path><path d="M959.74 340.26L1145.46 248.27" stroke="hsl(286.9, 59.8%, 86.9%)" stroke-width="1.5"></path><path d="M959.74 340.26L1141.55 487.75" stroke="hsl(286.9, 59.8%, 86.9%)" stroke-width="1.5"></path><path d="M959.74 340.26L790.25 515.55" stroke="hsl(286.9, 59.8%, 86.9%)" stroke-width="1.5"></path><path d="M1141.55 487.75L1141.55 487.75" stroke="hsl(286.9, 59.8%, 86.9%)" stroke-width="1.5"></path><path d="M1141.55 487.75L1111.63 401.56" stroke="hsl(286.9, 59.8%, 86.9%)" stroke-width="1.5"></path><path d="M1141.55 487.75L1252.72 377.94" stroke="hsl(286.9, 59.8%, 86.9%)" stroke-width="1.5"></path><path d="M1141.55 487.75L1305.55 547" stroke="hsl(286.9, 59.8%, 86.9%)" stroke-width="1.5"></path><path d="M1141.55 487.75L1109.24 678.34" stroke="hsl(286.9, 59.8%, 86.9%)" stroke-width="1.5"></path><path d="M1252.72 377.94L1252.72 377.94" stroke="hsl(286.9, 59.8%, 86.9%)" stroke-width="1.5"></path><path d="M1252.72 377.94L1111.63 401.56" stroke="hsl(286.9, 59.8%, 86.9%)" stroke-width="1.5"></path><path d="M1252.72 377.94L1145.46 248.27" stroke="hsl(286.9, 59.8%, 86.9%)" stroke-width="1.5"></path><path d="M1252.72 377.94L1305.55 547" stroke="hsl(286.9, 59.8%, 86.9%)" stroke-width="1.5"></path><path d="M1252.72 377.94L1455.13 339.57" stroke="hsl(286.9, 59.8%, 86.9%)" stroke-width="1.5"></path><path d="M1441.97 662.58L1441.97 662.58" stroke="hsl(286.9, 59.8%, 86.9%)" stroke-width="1.5"></path><path d="M1441.97 662.58L1413.6 561.33" stroke="hsl(286.9, 59.8%, 86.9%)" stroke-width="1.5"></path><path d="M1441.97 662.58L1559.53 700.62" stroke="hsl(286.9, 59.8%, 86.9%)" stroke-width="1.5"></path><path d="M1441.97 662.58L1305.55 547" stroke="hsl(286.9, 59.8%, 86.9%)" stroke-width="1.5"></path><path d="M1441.97 662.58L1261.55 669.07" stroke="hsl(286.9, 59.8%, 86.9%)" stroke-width="1.5"></path><path d="M1441.97 662.58L1602.23 562.01" stroke="hsl(286.9, 59.8%, 86.9%)" stroke-width="1.5"></path><path d="M1602.23 562.01L1602.23 562.01" stroke="hsl(286.9, 59.8%, 86.9%)" stroke-width="1.5"></path><path d="M1602.23 562.01L1559.53 700.62" stroke="hsl(286.9, 59.8%, 86.9%)" stroke-width="1.5"></path><path d="M1602.23 562.01L1593.79 384.34" stroke="hsl(286.9, 59.8%, 86.9%)" stroke-width="1.5"></path><path d="M1602.23 562.01L1413.6 561.33" stroke="hsl(286.9, 59.8%, 86.9%)" stroke-width="1.5"></path><path d="M1602.23 562.01L1455.13 339.57" stroke="hsl(286.9, 59.8%, 86.9%)" stroke-width="1.5"></path><path d="M-100.63 652.57L-100.63 652.57" stroke="hsl(286.9, 59.8%, 86.9%)" stroke-width="1.5"></path><path d="M-100.63 652.57L70.72 664.97" stroke="hsl(286.9, 59.8%, 86.9%)" stroke-width="1.5"></path><path d="M-100.63 652.57L65.03 540.84" stroke="hsl(286.9, 59.8%, 86.9%)" stroke-width="1.5"></path><path d="M-100.63 652.57L260.56 683.05" stroke="hsl(286.9, 59.8%, 86.9%)" stroke-width="1.5"></path><path d="M-100.63 652.57L384.66 678.32" stroke="hsl(286.9, 59.8%, 86.9%)" stroke-width="1.5"></path><path d="M-100.63 652.57L406.74 549.86" stroke="hsl(286.9, 59.8%, 86.9%)" stroke-width="1.5"></path><path d="M65.03 540.84L65.03 540.84" stroke="hsl(286.9, 59.8%, 86.9%)" stroke-width="1.5"></path><path d="M65.03 540.84L70.72 664.97" stroke="hsl(286.9, 59.8%, 86.9%)" stroke-width="1.5"></path><path d="M70.72 664.97L70.72 664.97" stroke="hsl(286.9, 59.8%, 86.9%)" stroke-width="1.5"></path><path d="M70.72 664.97L260.56 683.05" stroke="hsl(286.9, 59.8%, 86.9%)" stroke-width="1.5"></path><path d="M70.72 664.97L384.66 678.32" stroke="hsl(286.9, 59.8%, 86.9%)" stroke-width="1.5"></path><path d="M260.56 683.05L260.56 683.05" stroke="hsl(286.9, 59.8%, 86.9%)" stroke-width="1.5"></path><path d="M260.56 683.05L384.66 678.32" stroke="hsl(286.9, 59.8%, 86.9%)" stroke-width="1.5"></path><path d="M260.56 683.05L406.74 549.86" stroke="hsl(286.9, 59.8%, 86.9%)" stroke-width="1.5"></path><path d="M406.74 549.86L406.74 549.86" stroke="hsl(286.9, 59.8%, 86.9%)" stroke-width="1.5"></path><path d="M406.74 549.86L384.66 678.32" stroke="hsl(286.9, 59.8%, 86.9%)" stroke-width="1.5"></path><path d="M406.74 549.86L556.96 674.06" stroke="hsl(286.9, 59.8%, 86.9%)" stroke-width="1.5"></path><path d="M406.74 549.86L679.38 519.29" stroke="hsl(286.9, 59.8%, 86.9%)" stroke-width="1.5"></path><path d="M406.74 549.86L650.56 706.75" stroke="hsl(286.9, 59.8%, 86.9%)" stroke-width="1.5"></path><path d="M384.66 678.32L384.66 678.32" stroke="hsl(286.9, 59.8%, 86.9%)" stroke-width="1.5"></path><path d="M384.66 678.32L556.96 674.06" stroke="hsl(286.9, 59.8%, 86.9%)" stroke-width="1.5"></path><path d="M384.66 678.32L552.99 494.67" stroke="hsl(286.9, 59.8%, 86.9%)" stroke-width="1.5"></path><path d="M556.96 674.06L556.96 674.06" stroke="hsl(286.9, 59.8%, 86.9%)" stroke-width="1.5"></path><path d="M556.96 674.06L650.56 706.75" stroke="hsl(286.9, 59.8%, 86.9%)" stroke-width="1.5"></path><path d="M556.96 674.06L679.38 519.29" stroke="hsl(286.9, 59.8%, 86.9%)" stroke-width="1.5"></path><path d="M556.96 674.06L817 637.6" stroke="hsl(286.9, 59.8%, 86.9%)" stroke-width="1.5"></path><path d="M679.38 519.29L679.38 519.29" stroke="hsl(286.9, 59.8%, 86.9%)" stroke-width="1.5"></path><path d="M679.38 519.29L790.25 515.55" stroke="hsl(286.9, 59.8%, 86.9%)" stroke-width="1.5"></path><path d="M679.38 519.29L817 637.6" stroke="hsl(286.9, 59.8%, 86.9%)" stroke-width="1.5"></path><path d="M679.38 519.29L650.56 706.75" stroke="hsl(286.9, 59.8%, 86.9%)" stroke-width="1.5"></path><path d="M650.56 706.75L650.56 706.75" stroke="hsl(286.9, 59.8%, 86.9%)" stroke-width="1.5"></path><path d="M650.56 706.75L817 637.6" stroke="hsl(286.9, 59.8%, 86.9%)" stroke-width="1.5"></path><path d="M650.56 706.75L552.99 494.67" stroke="hsl(286.9, 59.8%, 86.9%)" stroke-width="1.5"></path><path d="M650.56 706.75L790.25 515.55" stroke="hsl(286.9, 59.8%, 86.9%)" stroke-width="1.5"></path><path d="M650.56 706.75L384.66 678.32" stroke="hsl(286.9, 59.8%, 86.9%)" stroke-width="1.5"></path><path d="M837.73 356.97L837.73 356.97" stroke="hsl(286.9, 59.8%, 86.9%)" stroke-width="1.5"></path><path d="M837.73 356.97L790.25 515.55" stroke="hsl(286.9, 59.8%, 86.9%)" stroke-width="1.5"></path><path d="M790.25 515.55L790.25 515.55" stroke="hsl(286.9, 59.8%, 86.9%)" stroke-width="1.5"></path><path d="M790.25 515.55L817 637.6" stroke="hsl(286.9, 59.8%, 86.9%)" stroke-width="1.5"></path><path d="M790.25 515.55L938.74 500.31" stroke="hsl(286.9, 59.8%, 86.9%)" stroke-width="1.5"></path><path d="M817 637.6L817 637.6" stroke="hsl(286.9, 59.8%, 86.9%)" stroke-width="1.5"></path><path d="M817 637.6L995.34 647.36" stroke="hsl(286.9, 59.8%, 86.9%)" stroke-width="1.5"></path><path d="M817 637.6L938.74 500.31" stroke="hsl(286.9, 59.8%, 86.9%)" stroke-width="1.5"></path><path d="M938.74 500.31L938.74 500.31" stroke="hsl(286.9, 59.8%, 86.9%)" stroke-width="1.5"></path><path d="M938.74 500.31L995.34 647.36" stroke="hsl(286.9, 59.8%, 86.9%)" stroke-width="1.5"></path><path d="M995.34 647.36L995.34 647.36" stroke="hsl(286.9, 59.8%, 86.9%)" stroke-width="1.5"></path><path d="M995.34 647.36L1109.24 678.34" stroke="hsl(286.9, 59.8%, 86.9%)" stroke-width="1.5"></path><path d="M995.34 647.36L1141.55 487.75" stroke="hsl(286.9, 59.8%, 86.9%)" stroke-width="1.5"></path><path d="M995.34 647.36L790.25 515.55" stroke="hsl(286.9, 59.8%, 86.9%)" stroke-width="1.5"></path><path d="M1145.46 248.27L1145.46 248.27" stroke="hsl(286.9, 59.8%, 86.9%)" stroke-width="1.5"></path><path d="M1145.46 248.27L1111.63 401.56" stroke="hsl(286.9, 59.8%, 86.9%)" stroke-width="1.5"></path><path d="M1145.46 248.27L1141.55 487.75" stroke="hsl(286.9, 59.8%, 86.9%)" stroke-width="1.5"></path><path d="M1145.46 248.27L1301.52 47.75" stroke="hsl(286.9, 59.8%, 86.9%)" stroke-width="1.5"></path><path d="M1111.63 401.56L1111.63 401.56" stroke="hsl(286.9, 59.8%, 86.9%)" stroke-width="1.5"></path><path d="M1109.24 678.34L1109.24 678.34" stroke="hsl(286.9, 59.8%, 86.9%)" stroke-width="1.5"></path><path d="M1109.24 678.34L1261.55 669.07" stroke="hsl(286.9, 59.8%, 86.9%)" stroke-width="1.5"></path><path d="M1109.24 678.34L1305.55 547" stroke="hsl(286.9, 59.8%, 86.9%)" stroke-width="1.5"></path><path d="M1109.24 678.34L938.74 500.31" stroke="hsl(286.9, 59.8%, 86.9%)" stroke-width="1.5"></path><path d="M1109.24 678.34L1111.63 401.56" stroke="hsl(286.9, 59.8%, 86.9%)" stroke-width="1.5"></path><path d="M1278.15 -108.63L1278.15 -108.63" stroke="hsl(286.9, 59.8%, 86.9%)" stroke-width="1.5"></path><path d="M1278.15 -108.63L1402.51 -110.46" stroke="hsl(286.9, 59.8%, 86.9%)" stroke-width="1.5"></path><path d="M1278.15 -108.63L1301.52 47.75" stroke="hsl(286.9, 59.8%, 86.9%)" stroke-width="1.5"></path><path d="M1278.15 -108.63L1415.95 94.88" stroke="hsl(286.9, 59.8%, 86.9%)" stroke-width="1.5"></path><path d="M1278.15 -108.63L1578.41 -79.47" stroke="hsl(286.9, 59.8%, 86.9%)" stroke-width="1.5"></path><path d="M1278.15 -108.63L1402.35 199.57" stroke="hsl(286.9, 59.8%, 86.9%)" stroke-width="1.5"></path><path d="M1278.15 -108.63L1545.89 112.36" stroke="hsl(286.9, 59.8%, 86.9%)" stroke-width="1.5"></path><path d="M1301.52 47.75L1301.52 47.75" stroke="hsl(286.9, 59.8%, 86.9%)" stroke-width="1.5"></path><path d="M1301.52 47.75L1415.95 94.88" stroke="hsl(286.9, 59.8%, 86.9%)" stroke-width="1.5"></path><path d="M1305.55 547L1305.55 547" stroke="hsl(286.9, 59.8%, 86.9%)" stroke-width="1.5"></path><path d="M1305.55 547L1413.6 561.33" stroke="hsl(286.9, 59.8%, 86.9%)" stroke-width="1.5"></path><path d="M1305.55 547L1261.55 669.07" stroke="hsl(286.9, 59.8%, 86.9%)" stroke-width="1.5"></path><path d="M1261.55 669.07L1261.55 669.07" stroke="hsl(286.9, 59.8%, 86.9%)" stroke-width="1.5"></path><path d="M1402.51 -110.46L1402.51 -110.46" stroke="hsl(286.9, 59.8%, 86.9%)" stroke-width="1.5"></path><path d="M1402.51 -110.46L1578.41 -79.47" stroke="hsl(286.9, 59.8%, 86.9%)" stroke-width="1.5"></path><path d="M1402.51 -110.46L1301.52 47.75" stroke="hsl(286.9, 59.8%, 86.9%)" stroke-width="1.5"></path><path d="M1415.95 94.88L1415.95 94.88" stroke="hsl(286.9, 59.8%, 86.9%)" stroke-width="1.5"></path><path d="M1415.95 94.88L1402.35 199.57" stroke="hsl(286.9, 59.8%, 86.9%)" stroke-width="1.5"></path><path d="M1402.35 199.57L1402.35 199.57" stroke="hsl(286.9, 59.8%, 86.9%)" stroke-width="1.5"></path><path d="M1402.35 199.57L1455.13 339.57" stroke="hsl(286.9, 59.8%, 86.9%)" stroke-width="1.5"></path><path d="M1402.35 199.57L1545.89 112.36" stroke="hsl(286.9, 59.8%, 86.9%)" stroke-width="1.5"></path><path d="M1455.13 339.57L1455.13 339.57" stroke="hsl(286.9, 59.8%, 86.9%)" stroke-width="1.5"></path><path d="M1455.13 339.57L1593.79 384.34" stroke="hsl(286.9, 59.8%, 86.9%)" stroke-width="1.5"></path><path d="M1413.6 561.33L1413.6 561.33" stroke="hsl(286.9, 59.8%, 86.9%)" stroke-width="1.5"></path><path d="M1578.41 -79.47L1578.41 -79.47" stroke="hsl(286.9, 59.8%, 86.9%)" stroke-width="1.5"></path><path d="M1578.41 -79.47L1545.89 112.36" stroke="hsl(286.9, 59.8%, 86.9%)" stroke-width="1.5"></path><path d="M1578.41 -79.47L1415.95 94.88" stroke="hsl(286.9, 59.8%, 86.9%)" stroke-width="1.5"></path><path d="M1578.41 -79.47L1590.59 212.66" stroke="hsl(286.9, 59.8%, 86.9%)" stroke-width="1.5"></path><path d="M1578.41 -79.47L1301.52 47.75" stroke="hsl(286.9, 59.8%, 86.9%)" stroke-width="1.5"></path><path d="M1545.89 112.36L1545.89 112.36" stroke="hsl(286.9, 59.8%, 86.9%)" stroke-width="1.5"></path><path d="M1545.89 112.36L1590.59 212.66" stroke="hsl(286.9, 59.8%, 86.9%)" stroke-width="1.5"></path><path d="M1545.89 112.36L1415.95 94.88" stroke="hsl(286.9, 59.8%, 86.9%)" stroke-width="1.5"></path><path d="M1590.59 212.66L1590.59 212.66" stroke="hsl(286.9, 59.8%, 86.9%)" stroke-width="1.5"></path><path d="M1590.59 212.66L1593.79 384.34" stroke="hsl(286.9, 59.8%, 86.9%)" stroke-width="1.5"></path><path d="M1590.59 212.66L1455.13 339.57" stroke="hsl(286.9, 59.8%, 86.9%)" stroke-width="1.5"></path><path d="M1590.59 212.66L1402.35 199.57" stroke="hsl(286.9, 59.8%, 86.9%)" stroke-width="1.5"></path><path d="M1590.59 212.66L1415.95 94.88" stroke="hsl(286.9, 59.8%, 86.9%)" stroke-width="1.5"></path><path d="M1593.79 384.34L1593.79 384.34" stroke="hsl(286.9, 59.8%, 86.9%)" stroke-width="1.5"></path><path d="M1593.79 384.34L1413.6 561.33" stroke="hsl(286.9, 59.8%, 86.9%)" stroke-width="1.5"></path><path d="M1593.79 384.34L1402.35 199.57" stroke="hsl(286.9, 59.8%, 86.9%)" stroke-width="1.5"></path><path d="M1559.53 700.62L1559.53 700.62" stroke="hsl(286.9, 59.8%, 86.9%)" stroke-width="1.5"></path><circle r="25" cx="-76.86" cy="508.08" fill="url(&quot;#SvgjsRadialGradient1025&quot;)"></circle><circle r="25" cx="552.99" cy="494.67" fill="url(&quot;#SvgjsRadialGradient1025&quot;)"></circle><circle r="25" cx="959.74" cy="340.26" fill="url(&quot;#SvgjsRadialGradient1025&quot;)"></circle><circle r="25" cx="1141.55" cy="487.75" fill="url(&quot;#SvgjsRadialGradient1025&quot;)"></circle><circle r="25" cx="1252.72" cy="377.94" fill="url(&quot;#SvgjsRadialGradient1025&quot;)"></circle><circle r="25" cx="1441.97" cy="662.58" fill="url(&quot;#SvgjsRadialGradient1025&quot;)"></circle><circle r="25" cx="1602.23" cy="562.01" fill="url(&quot;#SvgjsRadialGradient1025&quot;)"></circle><circle r="5" cx="-100.63" cy="652.57" fill="#e3bcee"></circle><circle r="5" cx="65.03" cy="540.84" fill="#e3bcee"></circle><circle r="5" cx="70.72" cy="664.97" fill="#e3bcee"></circle><circle r="5" cx="260.56" cy="683.05" fill="#e3bcee"></circle><circle r="5" cx="406.74" cy="549.86" fill="#e3bcee"></circle><circle r="5" cx="384.66" cy="678.32" fill="#e3bcee"></circle><circle r="5" cx="556.96" cy="674.06" fill="#e3bcee"></circle><circle r="5" cx="679.38" cy="519.29" fill="#e3bcee"></circle><circle r="5" cx="650.56" cy="706.75" fill="#e3bcee"></circle><circle r="5" cx="837.73" cy="356.97" fill="#e3bcee"></circle><circle r="5" cx="790.25" cy="515.55" fill="#e3bcee"></circle><circle r="5" cx="817" cy="637.6" fill="#e3bcee"></circle><circle r="5" cx="938.74" cy="500.31" fill="#e3bcee"></circle><circle r="5" cx="995.34" cy="647.36" fill="#e3bcee"></circle><circle r="5" cx="1145.46" cy="248.27" fill="#e3bcee"></circle><circle r="5" cx="1111.63" cy="401.56" fill="#e3bcee"></circle><circle r="5" cx="1109.24" cy="678.34" fill="#e3bcee"></circle><circle r="5" cx="1278.15" cy="-108.63" fill="#e3bcee"></circle><circle r="5" cx="1301.52" cy="47.75" fill="#e3bcee"></circle><circle r="5" cx="1305.55" cy="547" fill="#e3bcee"></circle><circle r="5" cx="1261.55" cy="669.07" fill="#e3bcee"></circle><circle r="5" cx="1402.51" cy="-110.46" fill="#e3bcee"></circle><circle r="5" cx="1415.95" cy="94.88" fill="#e3bcee"></circle><circle r="5" cx="1402.35" cy="199.57" fill="#e3bcee"></circle><circle r="5" cx="1455.13" cy="339.57" fill="#e3bcee"></circle><circle r="5" cx="1413.6" cy="561.33" fill="#e3bcee"></circle><circle r="5" cx="1578.41" cy="-79.47" fill="#e3bcee"></circle><circle r="5" cx="1545.89" cy="112.36" fill="#e3bcee"></circle><circle r="5" cx="1590.59" cy="212.66" fill="#e3bcee"></circle><circle r="5" cx="1593.79" cy="384.34" fill="#e3bcee"></circle><circle r="5" cx="1559.53" cy="700.62" fill="#e3bcee"></circle></g><defs><mask id="SvgjsMask1024"><rect width="1440" height="560" fill="#ffffff"></rect></mask><radialGradient id="SvgjsRadialGradient1025"><stop stop-color="#ffffff" offset="0.1"></stop><stop stop-color="rgba(199, 120, 221, 1)" offset="0.2"></stop><stop stop-color="rgba(199, 120, 221, 0)" offset="1"></stop></radialGradient></defs></svg>